<?xml version="1.0" encoding="utf-8"?>
<!-- Generator: Adobe Illustrator 27.5.0, SVG Export Plug-In . SVG Version: 6.00 Build 0)  -->
<svg version="1.1" id="Ebene_1" xmlns="http://www.w3.org/2000/svg" xmlns:xlink="http://www.w3.org/1999/xlink" x="0px" y="0px"
 viewBox="0 0 841.9 595.3" style="enable-background:new 0 0 841.9 595.3;" xml:space="preserve">
<style type="text/css">
.st0{fill:#0069B4;}
</style>
<g>
<path class="st0" d="M334.3,285.8l-18.8-4.4l16-10.8l-23.9-0.3l0.5,2.8l15.1-0.1v0.1l-13.9,9.4l16.3,3.9v0.1l-14.1,5.3l0.5,2.8
L334.3,285.8L334.3,285.8z M322.5,256.7l2.3-1.2l-5.6-10.7l-20,10.4l5.6,10.7l2.3-1.2l-4.3-8.2l7.5-3.9l4.2,8l2.3-1.2l-4.1-8
l5.6-2.9L322.5,256.7L322.5,256.7z M304.2,242.3c5.5-5.1,4.3-11.7-0.3-16.8l-3.1-3.4l-16.6,15.2l3.1,3.4
C292,245.9,298.5,247.5,304.2,242.3L304.2,242.3z M302.2,240.3c-4.8,4.4-9.7,2.2-13.6-2l-0.7-0.7l12.8-11.8l0.7,0.7
C305.2,230.8,307,235.9,302.2,240.3L302.2,240.3z M280.2,234.1l2.9-25.6l-21.3,14.6l2.6,1.6l5.1-3.5l8.9,5.3l-0.7,6.2L280.2,234.1
L280.2,234.1z M279.9,213.8l-1.3,9.9l-6.9-4.1L279.9,213.8L279.9,213.8z M252,208.1l12.3-7.3l-3.6-0.9l-11.6,7.1l2.4-9.5l-2.7-0.7
l-5.5,21.8l2.7,0.7l2.3-9.1l1.4-0.8l5.7,12.2l3.7,0.9L252,208.1L252,208.1z M235.1,218.2l3-0.1L226.6,195l-10,23.8l3-0.1l2.4-5.7
l10.3-0.3L235.1,218.2L235.1,218.2z M231.1,210.1l-8,0.2l3.7-9.2L231.1,210.1L231.1,210.1z M209.3,210.2l-0.3-0.8l-8.4,3.1l0.9,2.4
l5.5-2c1.2,3.5-1.3,7.6-4.6,8.8c-4.6,1.7-9.8-1.1-11.4-5.6c-1.8-4.7,0.5-9.9,5.2-11.7c2.6-1,5.6-0.5,7.9,1l1.2-2.4
c-3-1.8-6.8-2.1-10.1-0.9c-6.1,2.3-9.1,9-6.8,15.1c2.2,5.8,8.8,9.2,14.7,7C209,221.9,211.4,216,209.3,210.2L209.3,210.2z
 M177.5,226.8c2.4-2.3,2.5-5.7,0.5-8.3c-1.3-1.7-3.4-2.8-5.6-2.5c-2,0.3-3.8,1.5-5.4,2.8l-2.7,2l13.6,17.9l2.2-1.7l-5.7-7.6
l0.9-0.7l11,3.6l2.7-2.1L177.5,226.8L177.5,226.8z M173.7,227.1l-0.7,0.5l-4.9-6.5l0.6-0.5c2.2-1.7,5.2-3.3,7.3-0.5
C178.2,223.1,176,225.4,173.7,227.1L173.7,227.1z M156.8,242.3l-4.9-4l5.9-7.2l-2-1.6l-7.6,9.4l17.4,14.2l7.6-9.4l-2-1.6l-5.9,7.2
l-6.6-5.4l5.7-7l-2-1.6L156.8,242.3L156.8,242.3z M149.5,257.5c0-1.7-1.3-3.3-2.8-4c-4.6-2.2-7.3,1-9.1,4.8l-1.2,2.5l20.3,9.7
l2.3-4.7c1.7-3.6,1.7-7.8-2.3-9.8C154.2,254.8,151.1,255.3,149.5,257.5L149.5,257.5L149.5,257.5z M146.9,261.8l-0.3,0.6l-6.7-3.2
l0.3-0.7c1.1-2.4,2.5-4.1,5.4-2.7C148.5,257.2,148,259.4,146.9,261.8L146.9,261.8z M149.3,261.9c1.1-2.3,3.1-4.9,5.9-3.5
c2.9,1.4,2.4,4.2,1.3,6.5l-0.9,1.9l-7-3.3L149.3,261.9L149.3,261.9z M144.1,288.6l-14.2-0.3l-0.1,2.8l13.3,0.3c3.7,0.1,7,1.2,7,5.6
c-0.1,4.3-3.5,5.4-7.2,5.3l-13.3-0.3l-0.1,2.8l14.2,0.3c5,0.1,8.8-2.9,8.9-8.1C152.8,291.9,149,288.7,144.1,288.6L144.1,288.6z
 M133.5,314.9l-2.5,0.6l3.1,13.1l2.5-0.6l-1.2-5.2l19.4-4.6l-0.6-2.7l-19.4,4.6L133.5,314.9L133.5,314.9z M173.3,352.3l-15,16.7
l2.1,1.9l7.4-8.2l5.8,5.2l1.7-1.9l-5.8-5.2l4.2-4.7l6,5.4l1.7-1.9L173.3,352.3L173.3,352.3z M185.3,363l-11.1,19.6l2.4,1.4l4.7-8.3
l1,0.6l1.1,11.5l3,1.7l-1.3-12c3,1.3,6.2,0,7.8-2.8c1.1-1.9,1.2-4.2,0.1-6.1c-1.1-1.8-2.9-2.9-4.6-3.8L185.3,363L185.3,363z
 M182.5,373.7l4-7.1l0.6,0.4c2.4,1.4,5.1,3.5,3.3,6.5c-1.8,3.1-4.7,2-7.2,0.6L182.5,373.7L182.5,373.7z M201,371.7l-6.6,21.5
l11.6,3.5l0.7-2.5l-8.9-2.7l2.5-8.1l8.6,2.6l0.7-2.5l-8.6-2.6l1.8-6l8.9,2.7l0.7-2.5L201,371.7L201,371.7z M218.6,376.5l-2.7,22.3
l2.8,0.3l2.7-22.3L218.6,376.5L218.6,376.5z M231.2,377.7l-2.7,0.1l0.8,22.5l5.2-0.2c4-0.1,7.7-2.1,7.6-6.6c-0.1-2.6-2-5.2-4.7-5.5
v-0.1c1.5-0.8,2.3-2.7,2.3-4.4C239.5,378.5,235.4,377.6,231.2,377.7L231.2,377.7z M231.7,389.9l1.7-0.1c2.5-0.1,5.8,0.4,5.9,3.6
c0.1,3.2-2.6,4.1-5.2,4.2l-2.1,0.1L231.7,389.9L231.7,389.9z M231.4,380.2h0.8c2.6-0.1,4.8,0.4,4.9,3.5c0.1,3.2-2,3.8-4.7,3.9h-0.7
L231.4,380.2L231.4,380.2z M257.6,373.3l-11.6,3.4l6.3,21.6l11.6-3.4l-0.7-2.5l-8.9,2.6l-2.4-8.2l8.7-2.5l-0.7-2.5l-8.7,2.5l-1.8-6
l8.9-2.6L257.6,373.3L257.6,373.3z M262.6,371.7l10.8,19.7l2.5-1.4l-4.6-8.3l1-0.6l10.4,5.1l3-1.6l-10.9-5.2
c2.7-1.9,3.3-5.3,1.7-8.1c-1-1.9-3-3.2-5.2-3.3c-2.1,0-4,1-5.7,1.9L262.6,371.7L262.6,371.7z M266.3,372.6l0.7-0.4
c2.4-1.3,5.6-2.5,7.3,0.6c1.7,3.1-0.7,5.1-3.2,6.5l-0.8,0.4L266.3,372.6L266.3,372.6z M284.6,372.7c4.2,4.6,11.6,5.2,16.3,0.9
c4.6-4.3,4.6-10.7,0.5-15.2l-0.6-0.7l-6.6,6l1.7,1.9l4.3-3.9c2.4,2.8,1.7,7.6-0.9,9.9c-3.6,3.3-9.5,2.6-12.7-0.9
c-3.4-3.7-3.3-9.4,0.5-12.8c2-1.9,5-2.6,7.7-2.1l0.2-2.7c-3.5-0.6-7.1,0.6-9.7,3C280.5,360.5,280.2,367.9,284.6,372.7L284.6,372.7z
 M310.6,310.6l-3,11.7l2.5,0.6l2.3-9l8.2,2.1l-2.2,8.7l2.5,0.6l2.2-8.7l6.1,1.5l-2.3,9l2.5,0.6l3-11.7L310.6,310.6L310.6,310.6z
 M311.1,303.1l22.4,1.6l0.2-2.8l-22.4-1.6L311.1,303.1L311.1,303.1z M149.3,345c0,1.5,1.3,2.8,2.8,2.8s2.8-1.3,2.8-2.8
s-1.3-2.8-2.8-2.8S149.3,343.4,149.3,345z M308.4,345c0,1.5,1.3,2.8,2.8,2.8s2.8-1.3,2.8-2.8s-1.3-2.8-2.8-2.8
S308.4,343.4,308.4,345z"/>
<g>
<path class="st0" d="M406.3,233.8v63.8H388v-63.8h-17.2v-15.4h52.7v15.4H406.3z"/>
<path class="st0" d="M500.1,265.3c0,7.6-1,17-8.8,25.1c-7.6,7.8-16.4,9-24.7,9c-8.3,0-17.1-1.2-24.7-9c-7.8-8.1-8.8-17.5-8.8-25.1
v-46.9h18.3v46.4c0,3.4,0.2,9.3,4.2,13.3c3.2,3.4,7.6,4.2,11,4.2s7.8-0.7,11-4.2c3.9-4,4.2-9.9,4.2-13.3v-46.4h18.3V265.3z"/>
<path class="st0" d="M569.3,260.6c-2.9-2.9-7.1-4.8-10.9-5.3c1.9-0.8,4.6-2.5,6.7-5.8c2.1-3.4,2.6-7,2.6-10.1
c0-3.4-0.6-10.1-5.7-15c-6.2-5.8-15.9-6.1-20.2-6.1h-24.2v79.2h29.8c4.9,0,14.4-0.5,20.9-6.8c3.1-3.1,6.2-8.1,6.2-16
C574.4,267.8,571.9,263.3,569.3,260.6z M535.5,232.6h2.8c3.3,0,6.9,0,9.5,2c1.4,1.1,3.1,3.2,3.1,6.7c0,3.4-1.5,5.8-3.2,7
c-2.6,1.9-6.8,2.3-9.3,2.3h-3v-18H535.5z M553.5,280.1c-3.3,3.1-8.9,3.2-13.5,3.2h-4.4v-19.2h5c3.7,0,9.9,0,13.1,3
c1.2,1.1,2.5,3.2,2.5,6.4C556.1,276.3,555.1,278.6,553.5,280.1z"/>
<path class="st0" d="M628.3,218.4h-16.7l-32,79.2h19l6.1-15h29.9l5.9,15h19L628.3,218.4z M610,268.6l9.9-26.6l9.7,26.6H610z"/>
<path class="st0" d="M712.4,233.8h-25.7v15.3h23.8v15.4h-23.8v33h-18.3v-79.2h44V233.8z"/>
</g>
<g>
<path class="st0" d="M386.9,324.2h4.3c2.1,0,5.1,0.2,7.7,2.4c1.9,1.6,3.6,4.3,3.6,8c0,4.4-2.2,6.7-3.7,8c-1.9,1.6-3.9,2.4-7.6,2.4
H387L386.9,324.2L386.9,324.2z M389.2,342.9h2c1.7,0,3.9-0.2,6-1.9c1.6-1.3,2.8-3.4,2.8-6.4c0-5-3.5-8.3-8.8-8.3h-2V342.9z"/>
<path class="st0" d="M407.3,325.6c0.9,0,1.6,0.7,1.6,1.6s-0.7,1.6-1.6,1.6s-1.6-0.7-1.6-1.6C405.7,326.3,406.4,325.6,407.3,325.6z
 M408.4,332.1v13h-2.3v-13H408.4z"/>
<path class="st0" d="M424.2,341.8c-0.4,0.7-0.9,1.5-1.6,2.1c-1.2,1.1-2.7,1.6-4.3,1.6c-3.1,0-6.4-2-6.4-6.8c0-3.9,2.4-6.9,6.3-6.9
c2.5,0,4.1,1.3,4.9,2.4c0.8,1.2,1.3,3.2,1.2,4.9h-10.1c0,2.7,1.9,4.4,4.1,4.4c1.1,0,1.9-0.3,2.7-0.9c0.6-0.5,1.1-1.2,1.3-1.8
L424.2,341.8z M422,337.2c-0.4-2-1.9-3.4-3.8-3.4s-3.5,1.4-3.8,3.4H422z"/>
<path class="st0" d="M438.9,324.2c1.4,0,3.5,0.1,5.1,1.2c1.2,0.8,2.3,2.4,2.3,4.6c0,3.2-2.1,5.5-5.3,5.8l6.6,9.3h-2.8l-6.4-9.1
h-0.6v9.1h-2.3v-20.9H438.9z M437.9,333.9h1.5c2.9,0,4.6-1.4,4.6-3.8c0-1.2-0.3-2.3-1.7-3.1c-0.9-0.5-2-0.6-3-0.6h-1.4V333.9z"/>
<path class="st0" d="M461.7,341.8c-0.4,0.7-0.9,1.5-1.6,2.1c-1.2,1.1-2.7,1.6-4.3,1.6c-3.1,0-6.4-2-6.4-6.8c0-3.9,2.4-6.9,6.3-6.9
c2.5,0,4.1,1.3,4.9,2.4c0.8,1.2,1.3,3.2,1.2,4.9h-10.1c0,2.7,1.9,4.4,4.1,4.4c1.1,0,1.9-0.3,2.7-0.9c0.6-0.5,1.1-1.2,1.3-1.8
L461.7,341.8z M459.4,337.2c-0.4-2-1.9-3.4-3.8-3.4s-3.5,1.4-3.8,3.4H459.4z"/>
<path class="st0" d="M470.5,335.1c-0.3-0.8-1-1.3-1.8-1.3s-1.6,0.5-1.6,1.5c0,0.9,0.6,1.2,2.1,1.8c1.9,0.8,2.8,1.4,3.3,2
c0.6,0.7,0.7,1.4,0.7,2.1c0,2.7-2,4.3-4.5,4.3c-0.5,0-3.4-0.1-4.5-3.3l1.9-0.8c0.3,0.7,1,2.1,2.6,2.1c1.5,0,2.1-1.1,2.1-2.1
c0-1.2-0.9-1.6-2.1-2.2c-1.6-0.7-2.6-1.2-3.2-1.9c-0.5-0.6-0.6-1.3-0.6-1.9c0-2.3,1.6-3.6,3.8-3.6c0.7,0,2.5,0.1,3.6,2.3
L470.5,335.1z"/>
<path class="st0" d="M481.6,335.1c-0.3-0.8-1-1.3-1.8-1.3s-1.6,0.5-1.6,1.5c0,0.9,0.6,1.2,2.1,1.8c1.9,0.8,2.8,1.4,3.3,2
c0.6,0.7,0.7,1.4,0.7,2.1c0,2.7-2,4.3-4.5,4.3c-0.5,0-3.4-0.1-4.5-3.3l1.9-0.8c0.3,0.7,1,2.1,2.6,2.1c1.5,0,2.1-1.1,2.1-2.1
c0-1.2-0.9-1.6-2.1-2.2c-1.6-0.7-2.6-1.2-3.2-1.9c-0.5-0.6-0.6-1.3-0.6-1.9c0-2.3,1.6-3.6,3.8-3.6c0.7,0,2.5,0.1,3.6,2.3
L481.6,335.1z"/>
<path class="st0" d="M486.4,338.6c0-3.9,2.9-6.9,6.9-6.9s6.9,2.9,6.9,6.9c0,3.9-2.9,6.8-6.9,6.8
C489.4,345.5,486.4,342.6,486.4,338.6z M488.7,338.6c0,3.2,2.3,4.8,4.6,4.8c2.3,0,4.6-1.7,4.6-4.8c0-3.2-2.2-4.9-4.6-4.9
C490.9,333.8,488.7,335.5,488.7,338.6z"/>
<path class="st0" d="M505.9,339.7c0,0.9,0,2,0.6,2.8c0.3,0.4,1,1,2.3,1s1.9-0.6,2.3-1c0.6-0.8,0.6-1.9,0.6-2.8v-7.6h2.3v7.8
c0,1.6-0.2,2.8-1.2,3.9c-1.2,1.2-2.7,1.6-4,1.6s-2.8-0.4-4-1.6c-1-1.1-1.2-2.3-1.2-3.9v-7.8h2.3L505.9,339.7L505.9,339.7z"/>
<path class="st0" d="M518.3,332.1h2.3v1.4c0.2-0.3,1.2-1.7,2.9-1.7c0.7,0,1.4,0.3,2,0.5l-1.1,2c-0.5-0.3-1-0.4-1.3-0.4
c-0.9,0-1.5,0.4-1.8,0.8c-0.4,0.5-0.8,1.4-0.8,3.5v6.9h-2.3L518.3,332.1L518.3,332.1z"/>
<path class="st0" d="M537,335.7c-1.2-1.5-2.9-1.9-4.1-1.9c-2.4,0-4.6,1.7-4.6,4.9c0,3.2,2.3,4.8,4.6,4.8c1.3,0,3-0.6,4.2-2v2.7
c-1.4,1-2.9,1.3-4.1,1.3c-4,0-7-2.9-7-6.8c0-4,2.9-6.9,7-6.9c2.1,0,3.4,0.8,4,1.3L537,335.7L537,335.7z"/>
<path class="st0" d="M552,341.8c-0.4,0.7-0.9,1.5-1.6,2.1c-1.2,1.1-2.7,1.6-4.3,1.6c-3.1,0-6.4-2-6.4-6.8c0-3.9,2.4-6.9,6.3-6.9
c2.5,0,4.1,1.3,4.9,2.4c0.8,1.2,1.3,3.2,1.2,4.9H542c0,2.7,1.9,4.4,4.1,4.4c1.1,0,1.9-0.3,2.7-0.9c0.6-0.5,1.1-1.2,1.3-1.8
L552,341.8z M549.8,337.2c-0.4-2-1.9-3.4-3.8-3.4s-3.5,1.4-3.8,3.4H549.8z"/>
<path class="st0" d="M555.6,332.1h2.3v1.5c0.4-0.5,1.6-1.8,3.7-1.8c1.5,0,2.9,0.6,3.7,1.8c0.7,1,0.8,2,0.8,3.5v8.1h-2.3v-8
c0-0.8-0.1-1.7-0.6-2.4c-0.4-0.6-1.1-0.9-2.1-0.9c-0.8,0-1.6,0.2-2.3,1c-0.9,1-0.9,2.6-0.9,3.5v6.8h-2.3L555.6,332.1L555.6,332.1z
"/>
<path class="st0" d="M572.6,339.7c0,0.9,0,2,0.6,2.8c0.3,0.4,1,1,2.3,1s1.9-0.6,2.3-1c0.6-0.8,0.6-1.9,0.6-2.8v-7.6h2.3v7.8
c0,1.6-0.2,2.8-1.2,3.9c-1.2,1.2-2.7,1.6-4,1.6s-2.8-0.4-4-1.6c-1-1.1-1.2-2.3-1.2-3.9v-7.8h2.3L572.6,339.7L572.6,339.7z"/>
<path class="st0" d="M584.9,332.1h2.3v1.5c0.4-0.5,1.6-1.8,3.7-1.8c1.5,0,2.9,0.6,3.7,1.8c0.7,1,0.8,2,0.8,3.5v8.1h-2.3v-8
c0-0.8-0.1-1.7-0.6-2.4c-0.4-0.6-1.1-0.9-2.1-0.9c-0.8,0-1.6,0.2-2.3,1c-0.9,1-0.9,2.6-0.9,3.5v6.8h-2.3L584.9,332.1L584.9,332.1z
"/>
<path class="st0" d="M600.7,325.6c0.9,0,1.6,0.7,1.6,1.6s-0.7,1.6-1.6,1.6c-0.9,0-1.6-0.7-1.6-1.6
C599.1,326.3,599.9,325.6,600.7,325.6z M601.9,332.1v13h-2.3v-13H601.9z"/>
<path class="st0" d="M606.8,332.1l3.9,8.8l3.9-8.8h2.5l-6.4,13.8l-6.4-13.8H606.8z"/>
<path class="st0" d="M630.9,341.8c-0.4,0.7-0.9,1.5-1.6,2.1c-1.2,1.1-2.7,1.6-4.3,1.6c-3.1,0-6.4-2-6.4-6.8c0-3.9,2.4-6.9,6.3-6.9
c2.5,0,4.1,1.3,4.9,2.4c0.8,1.2,1.3,3.2,1.2,4.9h-10.1c0,2.7,1.9,4.4,4.1,4.4c1.1,0,1.9-0.3,2.7-0.9c0.6-0.5,1.1-1.2,1.3-1.8
L630.9,341.8z M628.7,337.2c-0.4-2-1.9-3.4-3.8-3.4c-1.9,0-3.5,1.4-3.8,3.4H628.7z"/>
<path class="st0" d="M634.5,332.1h2.3v1.4c0.2-0.3,1.2-1.7,2.9-1.7c0.7,0,1.4,0.3,2,0.5l-1.1,2c-0.5-0.3-1-0.4-1.3-0.4
c-0.9,0-1.5,0.4-1.8,0.8c-0.4,0.5-0.8,1.4-0.8,3.5v6.9h-2.3L634.5,332.1L634.5,332.1z"/>
<path class="st0" d="M648.8,335.1c-0.3-0.8-1-1.3-1.8-1.3s-1.6,0.5-1.6,1.5c0,0.9,0.6,1.2,2.1,1.8c1.9,0.8,2.8,1.4,3.3,2
c0.6,0.7,0.7,1.4,0.7,2.1c0,2.7-2,4.3-4.5,4.3c-0.5,0-3.4-0.1-4.5-3.3l1.9-0.8c0.3,0.7,1,2.1,2.6,2.1c1.5,0,2.1-1.1,2.1-2.1
c0-1.2-0.9-1.6-2.1-2.2c-1.6-0.7-2.6-1.2-3.2-1.9c-0.5-0.6-0.6-1.3-0.6-1.9c0-2.3,1.6-3.6,3.8-3.6c0.7,0,2.5,0.1,3.6,2.3
L648.8,335.1z"/>
<path class="st0" d="M655.6,325.6c0.9,0,1.6,0.7,1.6,1.6s-0.7,1.6-1.6,1.6s-1.6-0.7-1.6-1.6C654,326.3,654.7,325.6,655.6,325.6z
 M656.7,332.1v13h-2.3v-13H656.7z"/>
<path class="st0" d="M663.3,334.2v10.9H661v-10.9h-1.4v-2.1h1.4v-4.7h2.3v4.7h2.3v2.1H663.3z"/>
<path class="st0" d="M677.6,332.1h2.3v13h-2.3v-1.8c-0.8,1-2.2,2.2-4.4,2.2c-3.3,0-6.3-2.3-6.3-6.9c0-4.5,3-6.8,6.3-6.8
c2.5,0,3.9,1.4,4.4,2.2V332.1z M669.2,338.6c0,2.8,1.6,4.9,4.3,4.9c2.8,0,4.3-2.3,4.3-4.9c0-3.4-2.3-4.8-4.3-4.8
C671.2,333.8,669.2,335.4,669.2,338.6z M671.2,326.3c0.8,0,1.6,0.7,1.6,1.6c0,0.8-0.7,1.6-1.6,1.6c-0.8,0-1.6-0.7-1.6-1.6
C669.6,327,670.3,326.3,671.2,326.3z M676.6,326.3c0.8,0,1.6,0.7,1.6,1.6c0,0.8-0.7,1.6-1.6,1.6c-0.8,0-1.6-0.7-1.6-1.6
C675.1,327,675.8,326.3,676.6,326.3z"/>
<path class="st0" d="M686.5,334.2v10.9h-2.3v-10.9h-1.4v-2.1h1.4v-4.7h2.3v4.7h2.3v2.1H686.5z"/>
<path class="st0" d="M692.3,342.3c0.8,0,1.6,0.7,1.6,1.6c0,0.8-0.7,1.6-1.6,1.6c-0.8,0-1.6-0.7-1.6-1.6S691.4,342.3,692.3,342.3z"
/>
<path class="st0" d="M396.2,360.2c-0.3-0.6-0.8-1.2-1.2-1.6c-0.4-0.3-1.2-0.7-2.3-0.7c-2.1,0-3.5,1.3-3.5,3.2
c0,0.8,0.2,1.3,0.8,1.8c0.6,0.6,1.4,1,2.2,1.3l2,0.9c1.2,0.5,2.3,1.1,3.2,2c1.1,1.1,1.5,2.3,1.5,3.8c0,3.9-2.9,6.4-6.6,6.4
c-1.4,0-3.1-0.3-4.5-1.7c-1-1-1.7-2.4-1.9-3.7l2.3-0.6c0.2,1.1,0.7,2,1.3,2.7c0.9,0.9,1.9,1.2,3,1.2c2.9,0,4.2-2,4.2-4.1
c0-0.9-0.3-1.8-1-2.4c-0.6-0.6-1.4-0.9-2.5-1.4l-1.9-0.9c-0.8-0.4-1.8-0.8-2.8-1.7c-0.9-0.9-1.4-1.8-1.4-3.4
c0-3.2,2.5-5.4,5.9-5.4c1.3,0,2.3,0.3,3.4,0.9c0.8,0.6,1.6,1.4,2,2.3L396.2,360.2z"/>
<path class="st0" d="M414.1,373.6c-0.4,0.7-0.9,1.5-1.6,2.1c-1.2,1.1-2.7,1.6-4.3,1.6c-3.1,0-6.4-2-6.4-6.8c0-3.9,2.4-6.9,6.3-6.9
c2.5,0,4.1,1.3,4.9,2.4c0.8,1.2,1.3,3.2,1.2,4.9h-10.1c0,2.7,1.9,4.4,4.1,4.4c1.1,0,1.9-0.3,2.7-0.9c0.6-0.5,1.1-1.2,1.3-1.8
L414.1,373.6z M411.9,369c-0.4-2-1.9-3.4-3.8-3.4s-3.5,1.4-3.8,3.4H411.9z"/>
<path class="st0" d="M418.8,357.4c0.9,0,1.6,0.7,1.6,1.6s-0.7,1.6-1.6,1.6s-1.6-0.7-1.6-1.6C417.2,358.1,417.9,357.4,418.8,357.4z
 M419.9,363.9v13h-2.3v-13H419.9z"/>
<path class="st0" d="M426.5,366v10.9h-2.3V366h-1.4v-2.1h1.4v-4.7h2.3v4.7h2.3v2.1H426.5z"/>
<path class="st0" d="M444.4,358.2h-3.5l1.2-2.2h4.6v20.9h-2.3L444.4,358.2L444.4,358.2z"/>
<path class="st0" d="M463.8,358.2h-11.4V356h15.3l-14,21.4l-1.8-1.2L463.8,358.2z"/>
<path class="st0" d="M478,356.9l-4.8,6.7c0.6-0.2,1.2-0.3,1.8-0.3c4,0,6.8,3,6.8,6.9c0,4.2-3,7.2-7.2,7.2c-4.9,0-7.2-3.8-7.2-7.1
c0-0.8,0.2-2.6,1.7-4.8l7.1-9.9L478,356.9z M479.5,370.2c0-2.8-2.1-4.8-4.9-4.8c-2.9,0-4.9,2.1-4.9,4.8c0,2.8,2,5,4.9,5
S479.5,373,479.5,370.2z"/>
<path class="st0" d="M498.6,358.2h-6.7l-1.3,4.5c0.4-0.1,0.8-0.1,1.3-0.1c4.2,0,6.9,3.2,6.9,7.2c0,4.7-3.5,7.5-7.6,7.5
c-1.7,0-3.3-0.5-4.7-1.6c-0.7-0.6-1.3-1.3-1.8-2.1l1.8-1.3c0.3,0.7,0.8,1.2,1.4,1.7c0.9,0.7,1.9,1.3,3.4,1.3
c2.9,0,5.1-2.4,5.1-5.4s-2.2-5.1-5.1-5.1c-0.8,0-2.2,0.1-4,1.4l3-10.1h8.3L498.6,358.2L498.6,358.2z"/>
<path class="st0" d="M504.3,374.1c0.8,0,1.6,0.7,1.6,1.6c0,0.8-0.7,1.6-1.6,1.6c-0.8,0-1.6-0.7-1.6-1.6
C502.7,374.8,503.4,374.1,504.3,374.1z"/>
</g>
<g>
<path class="st0" d="M238.6,297.6l22.6-23.4l5.6,5.6l23.1,11.5l-11.5-23l-5.8-5.8l1.6-1.7l-5.4-5.4l-1.7,1.6l-13.5-13.5L242,255
l13.3,13.3l-21.2,20.5v-29.5h0.5c2.2,0,3.9-1.8,3.9-3.9l-0.4-11h-4.4l0.4,9.8c0,0.4-0.3,0.7-0.7,0.7h-3.1c-0.4,0-0.7-0.3-0.7-0.7
l0.4-9.8h-4.4l-0.4,11c0,2.2,1.8,3.9,3.9,3.9h0.5v29.5l-23.1-22.3c4.9-4.4,10.5-8.1,16.5-11l-11.1-12.7
c-14.8,8.1-27,20.3-35.1,35.1l12.7,11.1c2.9-6.1,6.6-11.6,11-16.6l24.4,25.3L188,333.3c-0.9,0.9-1,2.3-0.1,3.2
c1.6,1.8,3.3,3.5,5.1,5.1c0.9,0.8,2.4,0.8,3.2-0.1l31.8-33l-0.4,3v0.9l-0.2,5.8v0.3v0.9l-0.1,3.5l0,0l-0.1,3.6l-0.1,0.3v0.9
l-0.7,22.5c0,0,0,0,0,0.1v0.1c0,0.6,0.2,1.1,0.6,1.5c0.4,0.4,0.9,0.6,1.5,0.6l0,0h0.1h6.1h0.1h0.1c0.6,0,1.1-0.2,1.5-0.6
s0.6-0.9,0.6-1.5l-0.7-22.9v-0.8v-0.1l-0.3-7.8v-0.5v-0.1l-0.2-5.9v-1l-0.1-0.6l-0.3-2.3l31.8,32.9c0.9,0.9,2.3,1,3.2,0.1
c1.8-1.6,3.5-3.3,5.1-5.1c0.8-0.9,0.8-2.4-0.1-3.2L238.6,297.6z M229,257.6c-1.2,0-2.3-1-2.3-2.2l0.4-9.4h1.1l-0.3,8.1
c0,1.3,1.1,2.4,2.4,2.4h3.1c1.3,0,2.4-1.1,2.4-2.4l-0.3-8.1h1.1l0.4,9.3c0,1.2-1,2.3-2.3,2.3h-2.1v32.8l-0.7,0.6l-0.6-0.6v-32.8
L229,257.6L229,257.6z M234.2,311.7L234.2,311.7l0.4,11.2l0,0l0.3,10.6v0.1l0.5,16.6c0,0.2-0.1,0.3-0.2,0.4
c-0.1,0.1-0.3,0.2-0.4,0.2h-6.1c-0.2,0-0.3-0.1-0.4-0.2c-0.1-0.1-0.2-0.3-0.2-0.4l0.5-15.9c0-0.1,0-0.1,0-0.2l0.2-6.9v-0.4v-0.1
l0.1-4l0,0l0.1-3.9v-0.2v-0.2v-0.1l0.2-6.8l0,0c0,0,0.3-2.4,0.7-5.2l1.8-1.8l1.8,1.9C233.9,309.3,234.2,311.7,234.2,311.7z
 M274.1,335.7l-4.3,4.3c-0.6,0.6-1.5,0.6-2.1,0l-6.6-7.1l0,0l-8.8-9.4l0,0l-1.1-1.2l0,0l-7.8-8.3l-0.6-0.6l-7.6-10.5
c0-0.1-0.1-0.1-0.1-0.2l-3.3-3.3l-3.3,3.3c0,0-0.1,0.1-0.1,0.2l-7.6,10.5l-0.6,0.6l-8.9,9.5l0,0l-8.8,9.4l0,0l-6.6,7.1
c-0.6,0.6-1.5,0.6-2.1,0l-4.3-4.3c-0.6-0.6-0.6-1.5,0-2.1l16.4-15.4l0.4-0.3l9.2-8.6l0.6-0.6l10.5-7.6c0.1,0,0.1-0.1,0.2-0.1
l3.3-3.3l-4.7-4.7l-8.3-8.3l-18.3-18.3l-4.2,4.2l-1.8-1.8l6-6l1.8,1.8l16.5,16.5l14.8,14.8l13.8-13.8l0,0l13-13l-1-1
c-1.1-1.1-1.1-2.8,0-3.9l5.1-4.3c1.1-1,2.7-1,3.8,0.1l2.8,2.8c1,1,1.1,2.7,0.1,3.8l-4.3,5.1c-1.1,1.1-2.8,1.1-3.9,0l-0.7-0.7
l-12.7,12.7l0,0l-14.1,14.1l3.3,3.3c0,0,0.1,0.1,0.2,0.1l10.5,7.6l0.6,0.6l9.2,8.7l0.3,0.2l16.4,15.4
C274.7,334.2,274.7,335.1,274.1,335.7z"/>
<path class="st0" d="M262.1,269.1c0.5,0.5,1.4,0.5,1.9,0l3.7-3.9c0.5-0.5,0.5-1.9,0-2.4l-1.2-1.2c-0.5-0.5-1.9-0.5-2.4,0l-3.9,3.7
c-0.5,0.5-0.5,1.4,0,1.9L262.1,269.1z"/>
</g>
</g>
</svg>
